<svg width="30" height="20" viewBox="0 0 30 20" fill="none" xmlns="http://www.w3.org/2000/svg">
<path d="M0.5 1.3501H29.5V19.3501H0.5V1.3501Z" fill="#1E50A0"/>
<path d="M12.9026 5.65548L13.4794 3.76074L14.0594 5.65453L12.5444 4.48501L14.4153 4.48358L12.9026 5.65548ZM15.943 5.65548L16.5197 3.76074L17.0997 5.65453L15.5847 4.48501L17.4556 4.48358L15.943 5.65548ZM18.5459 6.78379L19.1222 4.88906L19.7022 6.78285L18.1877 5.61332L20.0586 5.6119L18.5459 6.78379ZM21.3524 7.73116L21.9287 5.83643L22.5087 7.73022L20.9941 6.56069L22.8651 6.55927L21.3524 7.73116ZM10.1266 6.78379L10.7029 4.88906L11.2829 6.78285L9.7683 5.61332L11.6393 5.6119L10.1266 6.78379ZM7.32014 7.73116L7.8964 5.83643L8.4764 7.73022L6.96185 6.56069L8.83282 6.55927L7.32014 7.73116Z" fill="white" stroke="white" stroke-width="0.472222" stroke-linecap="round" stroke-linejoin="round"/>
<path d="M12.1094 10.2458C12.4723 10.1838 12.8493 10.1464 13.0224 9.8432C12.8105 9.83467 12.7721 9.49836 12.9181 9.34252C13.0874 9.21311 13.2772 9.1138 13.4794 9.04883C13.6688 8.9522 13.8405 8.72531 13.7399 8.53583C13.8727 8.51878 13.9289 8.33878 13.8779 8.21325C13.8128 8.09418 13.7196 7.99328 13.6066 7.91957C13.5505 7.88249 13.5025 7.83407 13.4657 7.77734C13.4289 7.7206 13.4041 7.65679 13.3928 7.58989C13.746 7.73246 14.1038 7.17541 14.4565 7.31894C14.4312 6.90683 14.9083 7.5662 14.9682 7.61452C14.9388 7.59253 14.9023 7.58248 14.866 7.58633C14.8296 7.59019 14.796 7.60768 14.7717 7.63536C14.7465 7.67232 14.7354 7.71734 14.7406 7.76199C14.7457 7.80663 14.7668 7.84784 14.7998 7.87789C14.8673 7.93644 14.9482 7.97699 15.0351 7.99583L15.9378 8.26962C15.9767 8.27451 16.016 8.26483 16.0483 8.24241C16.0806 8.21998 16.1037 8.18636 16.1132 8.14789C16.1484 8.19157 16.1924 8.22699 16.2424 8.25169C16.2924 8.27639 16.3471 8.28978 16.4028 8.29094C16.3866 8.57906 16.475 8.86322 16.6511 9.09004L16.7625 8.90483C17.037 9.02136 16.8827 9.49267 17.0927 9.70631C17.1502 9.75725 17.2173 9.79578 17.2901 9.81952C17.5347 9.91549 17.787 9.99044 18.0441 10.0436L17.813 10.9028C18.0893 10.8934 18.3647 10.9405 18.6227 11.0413C18.8806 11.142 19.1159 11.2944 19.3144 11.4893C19.3537 11.4215 19.4133 11.3682 19.4846 11.3371C19.5559 11.3061 19.6351 11.2989 19.7107 11.3167C19.7863 11.3345 19.8543 11.3762 19.9047 11.4359C19.9552 11.4956 19.9855 11.57 19.9913 11.6484C19.8201 11.656 19.7799 11.8905 19.7714 12.0643C19.763 12.2381 19.6409 12.4679 19.4847 12.3954C19.5549 12.5238 19.4449 12.6763 19.3336 12.7706C19.2223 12.8648 19.089 12.9761 19.104 13.1225C19.1124 13.2059 19.1704 13.2803 19.1671 13.3641C19.155 13.6601 18.5272 13.5507 18.5123 13.8468C18.501 14.0813 18.9426 14.2115 18.8341 14.4195C18.7873 14.5085 18.668 14.5189 18.5684 14.5185C18.5478 14.4546 18.5093 14.3982 18.4575 14.3561C18.4058 14.314 18.343 14.2882 18.277 14.2816C18.1446 14.2821 18.0263 14.445 18.0993 14.5568C17.9862 14.5578 17.8748 14.5848 17.7735 14.6358C17.6723 14.6868 17.5838 14.7604 17.5148 14.8512C17.4458 14.9419 17.398 15.0473 17.3751 15.1594C17.3522 15.2716 17.3548 15.3875 17.3827 15.4985L16.8986 15.5956C16.8303 15.385 16.7429 15.1813 16.6376 14.9869C16.6107 14.9253 16.566 14.8735 16.5094 14.8382C16.4612 14.8241 16.4105 14.821 16.3609 14.829C16.3114 14.837 16.2642 14.856 16.2227 14.8846L14.8307 15.5786C14.5697 15.7084 14.2731 15.8898 14.2539 16.1835C14.238 16.4269 14.4294 16.6619 14.3685 16.8987C14.3049 17.145 14.0117 17.2403 13.7614 17.271C13.6234 17.2881 13.4541 17.2829 13.3839 17.1611C13.2904 16.9996 13.4588 16.8173 13.514 16.6387C13.5458 16.4023 13.498 16.162 13.3783 15.9566C13.2645 15.5332 13.1186 15.1194 12.9419 14.7188C12.7914 14.4685 12.5768 14.2641 12.3208 14.1273C12.0649 13.9904 11.7772 13.9263 11.4882 13.9415C11.4636 13.4514 11.2781 12.9836 10.961 12.6124C10.8105 12.4687 10.6827 12.3024 10.5822 12.1193C10.535 12.026 10.523 11.9185 10.5484 11.817C10.5738 11.7154 10.6349 11.6267 10.7202 11.5674C10.5023 11.479 10.2925 11.3712 10.0934 11.2453C10.0534 11.2255 10.021 11.1929 10.0012 11.1525C9.9954 11.1286 9.99446 11.1037 9.99848 11.0794C10.0025 11.0552 10.0114 11.032 10.0246 11.0113C10.0901 10.892 10.193 10.7981 10.317 10.7447C10.441 10.6912 10.5791 10.6812 10.7094 10.7162C10.8731 10.765 11.0476 10.8848 11.1977 10.8029C11.2833 10.7555 11.3254 10.6584 11.3834 10.5793C11.5742 10.3779 11.8341 10.2589 12.1094 10.2458Z" fill="#F1B31C" stroke="#F1B31C" stroke-width="0.472222" stroke-linecap="round" stroke-linejoin="round"/>
<path d="M0.5 1.3501H29.5V19.3501H0.5V1.3501Z" stroke="black" stroke-width="0.944444" stroke-linecap="round" stroke-linejoin="round"/>
</svg>
