<svg width="30" height="20" viewBox="0 0 30 20" fill="none" xmlns="http://www.w3.org/2000/svg">
<path d="M0.5 1.3501H29.5V19.3501H0.5V1.3501Z" fill="#D22F27"/>
<path d="M5.17742 1.3501H0.5L15 10.3501V9.40273L5.17742 1.3501ZM5.17742 19.3501H0.5L15 10.3501V11.2975L5.17742 19.3501ZM24.8226 1.3501H29.5L15 10.3501V9.40273L24.8226 1.3501ZM24.8226 19.3501H29.5L15 10.3501V11.2975L24.8226 19.3501Z" fill="#F1B31C"/>
<path d="M13.5968 19.3501H16.4033L15.4678 10.3501H14.5323L13.5968 19.3501Z" fill="#F1B31C"/>
<path d="M29.5 11.7713V8.9292L15 9.87657V10.8239L29.5 11.7713ZM0.5 11.7713V8.9292L15 9.87657V10.8239L0.5 11.7713Z" fill="#F1B31C"/>
<path d="M13.5968 1.3501H16.4033L15.4678 10.3501H14.5323L13.5968 1.3501Z" fill="#F1B31C"/>
<path d="M15 13.6658C16.8083 13.6658 18.2742 12.1812 18.2742 10.35C18.2742 8.51871 16.8083 7.03418 15 7.03418C13.1917 7.03418 11.7258 8.51871 11.7258 10.35C11.7258 12.1812 13.1917 13.6658 15 13.6658Z" fill="#F1B31C" stroke="#D22F27" stroke-width="0.472222" stroke-miterlimit="10"/>
<path d="M0.5 1.3501H29.5V19.3501H0.5V1.3501Z" stroke="black" stroke-width="0.944444" stroke-linecap="round" stroke-linejoin="round"/>
</svg>
