<svg width="22" height="22" viewBox="0 0 22 22" fill="none" xmlns="http://www.w3.org/2000/svg">
<path d="M13.0625 4.125C14.2188 4.4295 15.2736 5.03544 16.1191 5.88094C16.9646 6.72644 17.5705 7.7812 17.875 8.9375" stroke="#F1F1F1" stroke-width="1.5" stroke-linecap="round" stroke-linejoin="round"/>
<path d="M12.375 6.875C13.7947 7.25484 14.7452 8.20531 15.125 9.625" stroke="#F1F1F1" stroke-width="1.5" stroke-linecap="round" stroke-linejoin="round"/>
<path d="M13.4398 13.178C13.535 13.1146 13.6445 13.076 13.7584 13.0657C13.8723 13.0553 13.987 13.0735 14.092 13.1187L18.1448 14.9345C18.2814 14.9929 18.3954 15.094 18.4698 15.2225C18.5441 15.3511 18.5749 15.5003 18.5573 15.6478C18.4238 16.6456 17.9325 17.5609 17.1747 18.2236C16.4169 18.8862 15.4442 19.2511 14.4375 19.2503C11.3378 19.2503 8.36502 18.019 6.17319 15.8271C3.98136 13.6353 2.75 10.6625 2.75 7.56282C2.74923 6.55615 3.1141 5.58346 3.77675 4.82565C4.4394 4.06784 5.35473 3.57649 6.3525 3.44297C6.5 3.42545 6.6492 3.45617 6.77778 3.53053C6.90637 3.60489 7.00741 3.71889 7.06578 3.85547L8.88164 7.91172C8.92626 8.0159 8.94443 8.1295 8.93453 8.2424C8.92463 8.3553 8.88698 8.464 8.82492 8.55883L6.98844 10.7425C6.92329 10.8408 6.88477 10.9543 6.87664 11.072C6.8685 11.1896 6.89104 11.3073 6.94203 11.4137C7.65274 12.8686 9.15664 14.3545 10.6159 15.0583C10.7228 15.1091 10.841 15.1311 10.959 15.1222C11.077 15.1133 11.1907 15.0738 11.2888 15.0076L13.4398 13.178Z" stroke="#F1F1F1" stroke-width="1.5" stroke-linecap="round" stroke-linejoin="round"/>
</svg>
